<?xml version="1.0" encoding="utf-8"?>
<!-- Generator: Adobe Illustrator 25.4.1, SVG Export Plug-In . SVG Version: 6.00 Build 0)  -->
<svg version="1.1" xmlns="http://www.w3.org/2000/svg" xmlns:xlink="http://www.w3.org/1999/xlink" x="0px" y="0px"
	 viewBox="0 0 1000 667" style="enable-background:new 0 0 1000 667;" xml:space="preserve">
<style type="text/css">
	.st0{fill:#324A5E;}
	.st1{fill:#FDFDFE;}
	.st2{fill:#84DAFE;}
</style>
<g id="Capa_1">
	<g id="Modo_de_aislamiento">
	</g>
	<path class="st0" d="M311.8,333.8c0-104.1,84.5-188.5,188.6-188.5c104.1,0,188.5,84.5,188.5,188.6c0,104.1-84.5,188.6-188.6,188.6
		C396.3,522.4,311.8,437.9,311.8,333.8z M500.4,225.8c-27.2,0-54.4,0-81.5-0.1c-2.9,0-3.6,0.6-3.3,3.7c3.4,33.5,6.6,66.9,9.9,100.4
		c3.7,38.3,7.5,76.6,11.2,114.9c0.2,2.4,0.9,3.1,3.3,3.1c40.3-0.1,80.5-0.1,120.8,0c2.2,0,3.2-0.4,3.4-3c3.1-32.1,6.3-64.2,9.4-96.3
		c3.9-39.7,7.6-79.4,11.6-119c0.3-3.4-0.6-3.8-3.6-3.8C554.5,225.9,527.5,225.8,500.4,225.8z"/>
	<path class="st1" d="M500.4,225.8c27.1,0,54.1,0,81.2-0.1c3,0,4,0.4,3.6,3.8c-4,39.7-7.7,79.4-11.6,119
		c-3.1,32.1-6.4,64.2-9.4,96.3c-0.2,2.6-1.2,3-3.4,3c-40.3-0.1-80.5-0.1-120.8,0c-2.4,0-3.1-0.6-3.3-3.1
		c-3.6-38.3-7.4-76.6-11.2-114.9c-3.3-33.5-6.5-67-9.9-100.4c-0.3-3.1,0.4-3.7,3.3-3.7C446.1,225.9,473.2,225.8,500.4,225.8z
		 M500.5,309.9c-17.7,0-35.4,0.1-53.1-0.1c-3.5,0-4.4,1-3.9,4.2c0.6,4.7,1,9.4,1.5,14.1c1.1,11.4,2.1,22.8,3.2,34.1
		c1.1,11.9,2.4,23.7,3.6,35.6c0.9,9,1.9,18,2.7,27.1c0.2,2.7,1.3,3.4,3.9,3.4c15.1-0.1,30.2-0.1,45.2-0.1c13,0,25.9,0,38.9,0
		c2.3,0,3.5-0.3,3.9-3.1c0.3-2.7,0.3-5.5,0.6-8.2c1.2-11.9,2.4-23.7,3.6-35.6c1.1-11.1,2.1-22.3,3.2-33.4c1.1-11.5,2.3-23,3.6-34.4
		c0.3-3-0.7-3.8-3.7-3.8C535.9,309.9,518.2,309.9,500.5,309.9z"/>
	<path class="st2" d="M500.5,309.9c17.7,0,35.4,0.1,53.1-0.1c3,0,4,0.8,3.7,3.8c-1.3,11.5-2.4,23-3.6,34.4
		c-1.1,11.1-2.1,22.3-3.2,33.4c-1.2,11.9-2.3,23.7-3.6,35.6c-0.3,2.7-0.3,5.4-0.6,8.2c-0.3,2.8-1.5,3.1-3.9,3.1
		c-13-0.1-25.9,0-38.9,0c-15.1,0-30.2-0.1-45.2,0.1c-2.7,0-3.7-0.6-3.9-3.4c-0.8-9-1.8-18-2.7-27.1c-1.2-11.9-2.4-23.7-3.6-35.6
		c-1.1-11.4-2.1-22.8-3.2-34.1c-0.4-4.7-0.9-9.4-1.5-14.1c-0.4-3.2,0.5-4.3,3.9-4.2C465.1,310,482.8,309.9,500.5,309.9z"/>
</g>
<g id="Modo_de_aislamiento_1_">
</g>
<g id="Capa_19">
</g>
</svg>
